<?xml version="1.0" encoding="UTF-8" standalone="no"?>
<!-- Created with Inkscape (http://www.inkscape.org/) -->
<svg id="svg2" xmlns:rdf="http://www.w3.org/1999/02/22-rdf-syntax-ns#" xmlns="http://www.w3.org/2000/svg" height="64" width="64.868" version="1.1" xmlns:cc="http://creativecommons.org/ns#" xmlns:dc="http://purl.org/dc/elements/1.1/">
 <metadata id="metadata7">
  <rdf:RDF>
   <cc:Work rdf:about="">
    <dc:format>image/svg+xml</dc:format>
    <dc:type rdf:resource="http://purl.org/dc/dcmitype/StillImage"/>
    <dc:title/>
   </cc:Work>
  </rdf:RDF>
 </metadata>
 <g id="layer1" transform="translate(-185.26127,-652.82682)">
  <path id="path3031" fill="#000" d="m214.17,716.79c-7.9993-1.1403-13.871-3.894-19.119-8.9672-6.8762-6.6468-10.354-15.617-9.7154-25.06,0.93274-13.801,10.596-25.372,24.118-28.877,15.087-3.9112,30.791,3.2937,37.558,17.232,4.1224,8.4916,4.1588,18.843,0.096,27.336-1.6154,3.3767-3.3092,5.8146-5.9323,8.5385-4.5878,4.764-10.285,7.8957-16.94,9.3116-1.8147,0.3861-2.6623,0.45981-5.8295,0.50696-2.0383,0.0303-3.9442,0.0212-4.2354-0.0203zm8.6022-8.3568c8.8504-1.8859,15.988-8.5301,18.396-17.125,0.65395-2.3342,0.86071-3.9415,0.8513-6.6179-0.0218-6.1873-2.3184-11.806-6.6629-16.3-3.6028-3.7269-7.7557-6.0236-12.859-7.1113-2.3629-0.50364-6.8344-0.54393-9.1878-0.0828-3.6141,0.70817-7.4661,2.3797-10.17,4.413-8.8451,6.6522-12.127,18.021-8.1038,28.076,3.1959,7.9873,10.278,13.585,18.987,15.006,2.1728,0.35462,6.4683,0.22792,8.749-0.25806z"/>
 </g>
</svg>
