<?xml version="1.0" encoding="UTF-8" standalone="no"?>
<!-- Created with Inkscape (http://www.inkscape.org/) -->
<svg id="svg2" xmlns:rdf="http://www.w3.org/1999/02/22-rdf-syntax-ns#" xmlns="http://www.w3.org/2000/svg" height="64" width="68.316" version="1.1" xmlns:cc="http://creativecommons.org/ns#" xmlns:dc="http://purl.org/dc/elements/1.1/">
 <metadata id="metadata7">
  <rdf:RDF>
   <cc:Work rdf:about="">
    <dc:format>image/svg+xml</dc:format>
    <dc:type rdf:resource="http://purl.org/dc/dcmitype/StillImage"/>
    <dc:title/>
   </cc:Work>
  </rdf:RDF>
 </metadata>
 <g id="layer1" transform="translate(-72.250238,-581.17649)">
  <path id="path3047" fill="#000" d="m72.25,613.18,0-32,0.92086,0c0.50647,0,12.723,6.8456,27.148,15.212l26.227,15.212,0.55421-1.0889c1.3803-2.7121,3.5853-4.143,6.384-4.143,2.8659,0,5.0148,1.4338,6.4723,4.3185,0.81276,1.6086,0.81276,3.3689,0,4.9775-1.4575,2.8847-3.6064,4.3185-6.4723,4.3185-2.7988,0-5.0037-1.4309-6.384-4.143l-0.55421-1.0889-26.227,15.212c-14.425,8.3668-26.642,15.212-27.148,15.212h-0.92086v-32zm27.435,14.025c13.143-7.6049,23.897-13.916,23.897-14.025,0-0.18977-47.39-27.714-48.181-27.984-0.24928-0.085-0.38628,9.8399-0.38628,27.984s0.137,28.069,0.38628,27.984c0.21245-0.0724,11.14-6.3539,24.283-13.959zm36.053-10.551c1.2048-0.5912,2.2072-2.8393,1.8967-4.2534-0.71717-3.2653-4.7693-4.401-7.0146-1.9661-1.4548,1.5777-1.4894,3.7867-0.0853,5.4554,1.3699,1.6281,2.9652,1.8624,5.2032,0.76412z"/>
 </g>
</svg>
