<?xml version="1.0" encoding="UTF-8" standalone="no"?>
<!-- Created with Inkscape (http://www.inkscape.org/) -->
<svg id="svg2" xmlns:rdf="http://www.w3.org/1999/02/22-rdf-syntax-ns#" xmlns="http://www.w3.org/2000/svg" height="64" width="93.064" version="1.1" xmlns:cc="http://creativecommons.org/ns#" xmlns:dc="http://purl.org/dc/elements/1.1/">
 <metadata id="metadata7">
  <rdf:RDF>
   <cc:Work rdf:about="">
    <dc:format>image/svg+xml</dc:format>
    <dc:type rdf:resource="http://purl.org/dc/dcmitype/StillImage"/>
    <dc:title/>
   </cc:Work>
  </rdf:RDF>
 </metadata>
 <g id="layer1" transform="translate(-81.018831,-700.25911)">
  <path id="path3047" fill="#000" d="m88.36,764.13c-3.2672-0.64695-6.3817-3.7661-7.0879-7.0985-0.21042-0.99298-0.251-4.9441-0.25355-24.682-0.0021-16.023,0.05674-23.829,0.18482-24.536,0.64457-3.5555,3.8183-6.7631,7.3334-7.4116,0.64365-0.11874,9.148-0.16363,25.147-0.13275l24.175,0.0467,1.0478,0.39795c3.0259,1.1492,5.396,3.837,6.009,6.8143,0.11395,0.55349,0.19052,3.1328,0.19052,6.4178v5.4923h-3.4927-3.4927v-4.6834c0-5.5232-0.0953-6.0536-1.2844-7.1497-0.54855-0.50564-1.0126-0.75477-1.6674-0.89521-1.0914-0.23406-43.32-0.26479-44.523-0.0324-1.0573,0.20427-2.1315,1.001-2.601,1.9291l-0.39292,0.77686v22.671c0,20.068,0.03104,22.745,0.27028,23.318,0.34586,0.82776,0.86121,1.3756,1.738,1.8474l0.69853,0.37593h22.528c21.601,0,22.554-0.0133,23.18-0.3244,0.35888-0.1784,0.89132-0.56864,1.1832-0.86717,0.92891-0.95011,1.0457-1.7375,1.0457-7.0479v-4.7707h3.5009,3.5009l-0.0573,6.2431c-0.0658,7.1679-0.0709,7.1983-1.5901,9.435-1.065,1.568-2.751,2.8951-4.5188,3.5571l-1.0975,0.41099-24.449,0.026c-13.492,0.0143-24.796-0.0428-25.225-0.12764zm63.319-10.885c-1.7062-0.63154-2.6595-2.4176-2.2072-4.1351,0.18061-0.68579,0.90239-1.4715,6.5999-7.1842l6.3971-6.4142-16.234-0.0472-16.234-0.0472-0.71176-0.48331c-0.9962-0.67646-1.5296-1.6921-1.5285-2.9103,0.00052-0.55525,0.12266-1.2067,0.28478-1.519,0.32098-0.6182,1.2048-1.4172,1.831-1.6553,0.24157-0.0918,7.1461-0.15933,16.294-0.15927,8.7313,0.00007,15.875-0.0602,15.875-0.13382,0-0.0737-2.756-2.8823-6.1245-6.2413-3.3685-3.3591-6.2761-6.3989-6.4614-6.7553-1.1383-2.1893,0.59346-5.0257,3.0684-5.0257,1.3673,0,1.3661-0.001,11.312,9.924,6.3454,6.3319,9.682,9.7846,9.9104,10.256,0.39329,0.81073,0.43357,1.5557,0.1399,2.5878-0.1751,0.61533-1.5388,2.0593-9.4738,10.032-5.201,5.2253-9.5565,9.4615-9.9236,9.6517-0.8915,0.46189-1.9945,0.564-2.8144,0.26052z"/>
 </g>
</svg>
