<?xml version="1.0" encoding="utf-8"?>
<!-- Generator: Adobe Illustrator 16.0.4, SVG Export Plug-In . SVG Version: 6.00 Build 0)  -->
<!DOCTYPE svg PUBLIC "-//W3C//DTD SVG 1.1//EN" "http://www.w3.org/Graphics/SVG/1.1/DTD/svg11.dtd">
<svg version="1.1" id="Laag_1" xmlns="http://www.w3.org/2000/svg" xmlns:xlink="http://www.w3.org/1999/xlink" x="0px" y="0px"
	 width="80px" height="65px" viewBox="0 0 80 65" enable-background="new 0 0 80 65" xml:space="preserve">
<path fill="none" stroke="#010202" stroke-width="2" stroke-miterlimit="10" d="M48.197,26.438l0.016-5.112
	c0,0,0.301-2.784-2.904-2.784c-3.209,0-22.017,0.021-22.017,0.021s-2.816,0.564-2.796,2.944c0.023,2.785,0,21.667,0,21.667
	s-0.021,3.349,2.844,3.39c3.39,0.046,22.077,0.02,22.077,0.02s2.777-0.584,2.9-3.128c0.119-2.54,0.076-4.844,0.076-4.844"/>
<path fill="none" stroke="#010202" stroke-width="2" stroke-miterlimit="10" d="M53.75,23.999l8,8.22c0.438,0.375,0,0.75,0,0.75
	l-8.271,8.469"/>
<line fill="none" stroke="#010202" stroke-width="2" stroke-miterlimit="10" x1="42.949" y1="32.521" x2="61.549" y2="32.482"/>
<circle fill="#010202" cx="42.963" cy="32.526" r="1"/>
<circle fill="#010202" cx="53.501" cy="23.746" r="1.013"/>
<path fill="#010202" d="M54.524,41.383c0,0.553-0.448,0.999-0.995,0.999c-0.553,0-0.998-0.446-0.998-0.999
	c0-0.549,0.445-0.996,0.998-0.996C54.076,40.387,54.524,40.834,54.524,41.383z"/>
</svg>
